HIERARCHY
ROOT locator2
{
  OFFSET 53.6172 30.1899 0.816905
  CHANNELS 6 Xposition Yposition Zposition Zrotation Xrotation Yrotation
  JOINT koshi
  {
    OFFSET 0 0 0
    CHANNELS 6 Xposition Yposition Zposition Zrotation Xrotation Yrotation
    JOINT sippo01
    {
      OFFSET 0 42.8363 -0.548134
      CHANNELS 6 Xposition Yposition Zposition Zrotation Xrotation Yrotation
      JOINT sippo02
      {
        OFFSET 0 44.0461 -3.28882
        CHANNELS 6 Xposition Yposition Zposition Zrotation Xrotation Yrotation
        JOINT sippo03
        {
          OFFSET 0 34.1929 -2.46662
          CHANNELS 6 Xposition Yposition Zposition Zrotation Xrotation Yrotation
          JOINT sippo04
          {
            OFFSET 0 30.0959 -1.75404
            CHANNELS 6 Xposition Yposition Zposition Zrotation Xrotation Yrotation
            JOINT sippo05
            {
              OFFSET 0 28.3637 -1.75404
              CHANNELS 6 Xposition Yposition Zposition Zrotation Xrotation Yrotation
              JOINT sippo06
              {
                OFFSET 0 31.6071 -3.2043
                CHANNELS 6 Xposition Yposition Zposition Zrotation Xrotation Yrotation
                End Site
                {
                  OFFSET 0 0 0
                }
              }
            }
          }
        }
      }
    }
    JOINT R_momo
    {
      OFFSET -27.891 13.5892 3.92723
      CHANNELS 6 Xposition Yposition Zposition Zrotation Xrotation Yrotation
      JOINT R_hiza
      {
        OFFSET 0 28.01 1.8232
        CHANNELS 6 Xposition Yposition Zposition Zrotation Xrotation Yrotation
        JOINT R_ashi
        {
          OFFSET 0 24.3992 -2.49174
          CHANNELS 6 Xposition Yposition Zposition Zrotation Xrotation Yrotation
          End Site
          {
            OFFSET 0 0 0
          }
        }
      }
    }
    JOINT L_momo
    {
      OFFSET 27.891 13.5892 3.92714
      CHANNELS 6 Xposition Yposition Zposition Zrotation Xrotation Yrotation
      JOINT L_hiza
      {
        OFFSET 0 28.0098 1.82319
        CHANNELS 6 Xposition Yposition Zposition Zrotation Xrotation Yrotation
        JOINT L_ashi
        {
          OFFSET 0 24.3992 -2.49171
          CHANNELS 6 Xposition Yposition Zposition Zrotation Xrotation Yrotation
          End Site
          {
            OFFSET 0 0 0
          }
        }
      }
    }
  }
  JOINT hara
  {
    OFFSET 0 2.15392 0
    CHANNELS 6 Xposition Yposition Zposition Zrotation Xrotation Yrotation
    JOINT mune
    {
      OFFSET 0 62.0609 0.472494
      CHANNELS 6 Xposition Yposition Zposition Zrotation Xrotation Yrotation
      JOINT R_kata
      {
        OFFSET 22.6695 9.65301 -5.3622
        CHANNELS 6 Xposition Yposition Zposition Zrotation Xrotation Yrotation
        JOINT R_hiji
        {
          OFFSET 0 25.813 1.69098
          CHANNELS 6 Xposition Yposition Zposition Zrotation Xrotation Yrotation
          JOINT R_te
          {
            OFFSET 0 28.5636 -0.966307
            CHANNELS 6 Xposition Yposition Zposition Zrotation Xrotation Yrotation
            End Site
            {
              OFFSET 0 0 0
            }
          }
        }
      }
      JOINT L_kata
      {
        OFFSET -22.6695 9.65298 -5.3622
        CHANNELS 6 Xposition Yposition Zposition Zrotation Xrotation Yrotation
        JOINT L_hiji
        {
          OFFSET 0 25.813 1.69102
          CHANNELS 6 Xposition Yposition Zposition Zrotation Xrotation Yrotation
          JOINT L_te
          {
            OFFSET 0 28.5636 -0.966295
            CHANNELS 6 Xposition Yposition Zposition Zrotation Xrotation Yrotation
            End Site
            {
              OFFSET 0 0 0
            }
          }
        }
      }
      JOINT kubi
      {
        OFFSET 0 23.1438 -0.944988
        CHANNELS 6 Xposition Yposition Zposition Zrotation Xrotation Yrotation
        JOINT atama
        {
          OFFSET 0 20.8625 4.12737
          CHANNELS 6 Xposition Yposition Zposition Zrotation Xrotation Yrotation
          JOINT ago
          {
            OFFSET 0 7.552 -7.58201
            CHANNELS 6 Xposition Yposition Zposition Zrotation Xrotation Yrotation
            End Site
            {
              OFFSET 0 0 0
            }
          }
        }
      }
    }
  }
}
MOTION
Frames:	8
Frame Time:	0.0333333
0 26.5759 -1.62388e-005 -90 -3.50835e-015 -90 0 0 0 -174.665 3.09364 0.502796 4.32134e-007 42.8363 -0.548134 2.96546 -15.9227 3.73635 1.51992e-006 44.0461 -3.28882 5.40193 9.4035 -5.26573 0 34.1929 -2.46661 6.42417 1.07365 -1.69218 -5.72205e-006 30.0959 -1.75404 6.02401 9.41297 -0.737398 3.8147e-006 28.3637 -1.75404 9.46157 -5.79726 5.77059 1.42109e-014 31.6072 -3.2043 5.2327 -6.13232 -5.40331 -27.891 13.5892 3.92723 117.512 -18.6534 -48.4487 3.8147e-006 28.01 1.8232 12.0081 -82.2995 -3.9649 3.8147e-006 24.3992 -2.49173 -149.809 63.0225 -167.63 27.891 13.5892 3.92714 -102.225 -21.3508 59.5503 -3.8147e-006 28.0098 1.82319 -3.56867 -68.5031 9.5769 0 24.3992 -2.49172 140.858 67.276 166.802 6.07685e-007 2.15392 0 5.45549e-008 -0.411168 -5.45549e-008 1.75086e-005 62.0609 0.472494 -0 -7.59855e-017 -0 22.6695 9.65298 -5.3622 -148.418 2.80667 46.4224 -1.14441e-005 25.813 1.69098 179.965 -77.8757 179.747 7.10543e-015 28.5636 -0.966314 40.9753 13.2113 -94.3926 -22.6695 9.65298 -5.3622 130.732 -5.32419 -52.421 3.8147e-006 25.813 1.69102 -179.768 -75.3076 -178.036 -7.10543e-015 28.5636 -0.966295 -44.3064 34.5113 110.042 6.57604e-006 23.1438 -0.94499 -0.0681751 -3.99485 -0.115231 -1.11759e-008 20.8625 4.12738 -0.0482436 -4.00346 -0.0521431 -1.49012e-008 7.55203 -7.58201 -1.00483e-005 4.26461 7.47048e-007 
0.230197 26.9345 0.137498 -90 -3.50835e-015 -90 0 0 0 -175.267 2.71968 0.548501 4.32134e-007 42.8363 -0.548134 2.59148 -15.4576 3.99094 1.55499e-006 44.0461 -3.28882 4.8862 10.0828 -4.96667 1.72636e-007 34.1929 -2.46661 5.91189 1.59431 -2.09131 -5.4003e-006 30.0959 -1.75404 4.80008 9.80361 -1.31301 4.63726e-006 28.3637 -1.75404 8.83643 -4.97721 5.63594 7.80047e-007 31.6072 -3.20429 4.79234 -5.73144 -6.04756 -27.891 13.5892 3.92723 118.199 -23.6293 -51.6456 3.68332e-006 28.01 1.8232 18.5642 -85.4341 4.14703 3.77608e-006 24.3992 -2.49173 -150.651 54.8473 -164.682 27.891 13.5892 3.92714 -100.702 -22.2044 60.5348 -3.77422e-006 28.0098 1.82319 -3.4557 -67.3205 9.55739 3.18771e-008 24.3992 -2.49172 140.676 67.4058 166.908 6.07685e-007 2.15392 3.55271e-015 0.428355 -0.219241 0.091339 9.09717e-013 62.0609 0.472494 -4.96962e-017 -4.3125e-016 -2.48481e-017 22.6695 9.65299 -5.3622 -147.075 3.73763 45.0011 -1.14441e-005 25.813 1.69098 179.959 -79.7446 179.914 5.03925e-009 28.5636 -0.966314 42.7256 13.3429 -92.5499 -22.6695 9.65298 -5.3622 131.561 -7.14217 -53.6157 3.8147e-006 25.813 1.69102 -179.806 -74.9965 -177.697 1.61012e-008 28.5636 -0.966295 -43.5112 33.9845 111.546 3.41671e-013 23.1438 -0.94499 -0.710561 -3.58637 0.484529 -1.1176e-008 20.8625 4.12738 -0.675004 -3.70039 0.532917 -1.49369e-008 7.55203 -7.58201 1.86037e-005 4.15742 -1.86063e-005 
0.455925 27.2862 0.272341 -90 -3.50835e-015 -90 0 0 0 -175.858 2.35106 0.585666 4.32134e-007 42.8363 -0.548134 2.22612 -15.0001 4.24688 1.58929e-006 44.0461 -3.28882 4.37954 10.7483 -4.66174 3.42633e-007 34.1929 -2.46661 5.4092 2.10633 -2.47406 -5.07584e-006 30.0959 -1.75403 3.59726 10.1838 -1.86153 5.4814e-006 28.3637 -1.75404 8.21577 -2.87143 5.33312 1.5561e-006 31.6072 -3.20429 4.35607 -4.551 -6.73409 -27.891 13.5892 3.92723 114.551 -26.0661 -50.9281 3.65236e-006 28.01 1.8232 57.0439 -87.8201 39.0662 3.56894e-006 24.3992 -2.49173 -154.848 48.0498 -165.27 27.891 13.5892 3.92714 -98.9866 -22.9971 61.2355 -3.73473e-006 28.0098 1.82319 -3.35646 -66.16 9.52727 7.5505e-008 24.3992 -2.49172 140.496 67.5328 167.014 6.07685e-007 2.15392 0 0.847679 -0.0329499 0.178285 1.11022e-016 62.0609 0.472494 -1.98785e-016 7.02347e-016 -9.93923e-017 22.6695 9.65299 -5.3622 -145.746 4.62147 42.5813 -1.14441e-005 25.813 1.69098 179.954 -81.5769 -179.922 8.78016e-009 28.5636 -0.966314 44.7837 13.3596 -90.8382 -22.6695 9.65298 -5.3622 132.368 -8.68126 -53.4914 3.8147e-006 25.813 1.69102 -179.842 -74.6905 -177.362 3.23585e-008 28.5636 -0.966295 -43.61 33.0816 112.802 4.18887e-013 23.1438 -0.94499 -1.41766 -3.38472 2.1689 -1.1176e-008 20.8625 4.12738 -1.29162 -3.5003 2.31045 -3.38236e-008 7.55203 -7.58201 -2.14784e-006 5.31894 1.01735e-005 
0.488897 27.6413 0.40852 -90 -3.50835e-015 -90 0 0 0 -176.453 1.97913 0.615332 4.32134e-007 42.8363 -0.548134 1.85917 -14.5376 4.51142 1.62374e-006 44.0461 -3.28882 3.87443 12.0882 -4.38701 5.17474e-007 34.1929 -2.46661 4.90215 2.62345 -2.85113 -4.7362e-006 30.0959 -1.75403 2.38052 10.5639 -2.39893 6.37161e-006 28.3637 -1.75404 7.60234 -0.737117 5.07338 2.44472e-006 31.6072 -3.20429 3.91858 -3.35642 -7.40921 -27.891 13.5892 3.92723 109.002 -27.6864 -51.3014 3.57852e-006 28.01 1.8232 131.926 -87.0271 109.439 3.2726e-006 24.3992 -2.49173 -158.974 43.633 -166.087 27.891 13.5892 3.92714 -97.1753 -23.6685 61.9924 -3.69363e-006 28.0098 1.82319 -3.26649 -64.9879 9.48717 1.18712e-007 24.3992 -2.49172 140.305 67.6646 167.127 6.07685e-007 2.15392 7.10543e-015 1.27177 0.158205 0.264093 -1.11022e-016 62.0609 0.472494 -2.79749e-029 5.97907e-016 2.68076e-012 22.6695 9.65299 -5.3622 -144.62 5.497 40.1169 -1.14441e-005 25.813 1.69098 179.945 -83.4284 -179.759 1.13259e-008 28.5636 -0.966314 46.8586 13.3318 -90.0211 -22.6695 9.65298 -5.3622 133.065 -10.2672 -51.8356 3.8147e-006 25.813 1.69102 -179.865 -75.7762 -177.01 4.22351e-008 28.5636 -0.966295 -44.4599 32.1799 114.488 4.18887e-013 23.1438 -0.94499 -2.13281 -3.48484 4.36285 -1.1176e-008 20.8625 4.12738 -1.78953 -3.70032 4.59154 -6.23292e-008 7.55203 -7.58201 -1.0055e-005 4.75384 8.33139e-007 
0.522192 27.9999 0.546034 -90 -3.50835e-015 -90 0 0 0 -177.054 1.60231 0.63772 4.32134e-007 42.8363 -0.548134 1.4899 -14.0693 4.78506 1.65837e-006 44.0461 -3.28882 3.35731 13.4415 -4.08407 6.95607e-007 34.1929 -2.46661 3.76831 3.14916 -3.18866 -4.15738e-006 30.0959 -1.75403 1.14821 10.9438 -2.9253 7.50659e-006 28.3637 -1.75404 6.99078 1.42379 4.85753 3.64041e-006 31.6072 -3.20429 3.47974 -2.14942 -8.07198 -27.891 13.5892 3.92723 102.27 -26.3238 -52.4605 3.46281e-006 28.01 1.8232 73.1426 -87.2809 45.9754 3.28228e-006 24.3992 -2.49173 -160.624 44.9419 -167.066 27.891 13.5892 3.92714 -95.2787 -24.2086 62.8087 -3.65094e-006 28.0098 1.82319 -3.23227 -64.2196 9.38742 1.52704e-007 24.3992 -2.49172 140.106 67.8013 167.251 6.07685e-007 2.15392 3.55271e-015 1.69815 0.352324 0.34717 -5.55112e-017 62.0609 0.472494 1.74931e-013 -2.03824e-013 1.00179e-005 22.6695 9.65299 -5.3622 -143.626 4.3036 38.297 -1.14441e-005 25.813 1.69098 179.927 -85.3199 -179.605 1.25558e-008 28.5636 -0.966314 48.1858 12.3895 -89.5839 -22.6695 9.65298 -5.3622 131.143 -11.2445 -50.5007 3.8147e-006 25.813 1.69102 -179.893 -76.8737 -176.659 5.05284e-008 28.5636 -0.966295 -46.7164 30.6537 115.546 4.18776e-013 23.1438 -0.94499 -2.69294 -4.00241 6.43726 -1.1176e-008 20.8625 4.12738 -2.29265 -4.61857 6.61279 -8.68696e-008 7.55203 -7.58201 -4.9518e-009 3.09707 4.46311e-008 
0.55484 28.3516 0.680878 -90 -3.50835e-015 -90 0 0 0 -177.643 1.23168 0.652065 4.32134e-007 42.8363 -0.548134 1.12894 -13.6089 5.05967 1.69216e-006 44.0461 -3.28882 2.38188 14.7738 -3.64464 9.97499e-007 34.1929 -2.4666 2.65431 3.66513 -3.49987 -3.46824e-006 30.0959 -1.75403 -0.0636181 11.3121 -3.4259 8.74588e-006 28.3637 -1.75403 6.04314 3.55036 4.71186 5.11833e-006 31.6072 -3.20428 3.05171 -0.963956 -8.70439 -27.891 13.5892 3.92723 97.1707 -22.8098 -52.7565 3.35343e-006 28.01 1.8232 50.5902 -86.1305 17.6762 3.32367e-006 24.3992 -2.49173 -161.313 48.9648 -169.276 27.891 13.5892 3.92714 -93.3682 -24.6197 64.5453 -3.60337e-006 28.0098 1.82319 -3.20107 -63.465 9.49324 1.66761e-007 24.3992 -2.49172 139.914 67.9303 167.831 6.07685e-007 2.15392 3.55271e-015 2.11869 0.963977 0.410508 0 62.0609 0.472494 4.29767e-029 -1.6524e-015 1.49019e-012 22.6695 9.65299 -5.3622 -144.169 0.730172 38.4373 -1.14441e-005 25.813 1.69098 179.405 -89.467 -179.957 9.42375e-009 28.5636 -0.966314 46.8163 10.2338 -90.4943 -22.6695 9.65298 -5.3622 128.939 -13.1775 -47.0309 3.8147e-006 25.813 1.69102 -179.924 -77.9506 -176.319 5.70153e-008 28.5636 -0.966295 -49.9751 30.7715 117.181 4.18998e-013 23.1438 -0.94499 -2.9336 -5.20617 8.20659 -1.1176e-008 20.8625 4.12738 -2.5454 -6.20745 8.21276 -1.08847e-007 7.55203 -7.58201 -4.64669e-006 2.93085 1.02588e-006 
0.587811 28.7068 0.817056 -90 -3.50835e-015 -90 0 0 0 -178.238 0.857688 0.658472 4.32134e-007 42.8363 -0.548134 0.76724 -13.1453 5.34195 1.72592e-006 44.0461 -3.28882 1.38622 16.1166 -3.15316 1.30224e-006 34.1929 -2.4666 1.52943 4.18513 -3.79341 -2.76341e-006 30.0959 -1.75402 -1.28988 11.6787 -3.915 1.00088e-005 28.3637 -1.75403 5.07215 3.08872 4.86974 6.83652e-006 31.6072 -3.20427 2.6209 0.233923 -9.66885 -27.891 13.5892 3.92723 93.3042 -18.515 -52.5164 3.24924e-006 28.01 1.8232 67.6077 -86.3468 28.9597 3.21369e-006 24.3992 -2.49173 -161.961 54.2182 -170.344 27.891 13.5892 3.92714 -93.091 -24.7464 63.2711 -3.60437e-006 28.0098 1.82319 -3.17187 -62.7051 9.59831 2.31834e-007 24.3992 -2.49172 141.141 68.4662 167.103 6.07685e-007 2.15392 3.55271e-015 2.21113 1.58419 0.47473 0 62.0609 0.472494 1.59028e-015 2.44132e-015 -1.98785e-016 22.6695 9.65299 -5.3622 -144.551 -2.91992 39.8451 -1.14441e-005 25.813 1.69098 0.0808971 -86.3453 0.232615 5.61142e-009 28.5636 -0.966314 45.5438 7.95762 -91.5228 -22.6695 9.65298 -5.3622 126.608 -14.9261 -43.6899 3.8147e-006 25.813 1.69102 -179.956 -80.275 -176.436 3.98091e-008 28.5636 -0.966295 -53.461 30.5663 118.995 4.18554e-013 23.1438 -0.94499 -2.46508 -7.13539 9.6597 -1.1176e-008 20.8625 4.12738 -2.43259 -8.41637 9.3519 -1.2917e-007 7.55203 -7.58201 -1.00775e-005 2.763 1.42454e-006 
-0.469858 29.0654 0.95457 -90 -3.50835e-015 -90 0 0 0 -178.837 0.480116 0.657352 4.32134e-007 42.8363 -0.548134 0.402455 -12.6716 5.63462 1.75981e-006 44.0461 -3.28882 0.366775 17.4695 -2.60688 1.60933e-006 34.1929 -2.46661 0.39191 5.02991 -4.07118 -2.04515e-006 30.0959 -1.75396 -2.5312 12.0433 -4.39245 1.12823e-005 28.3637 -1.75404 4.0933 2.61988 5.01305 8.62816e-006 31.6072 -3.20421 2.18761 1.4447 -10.6245 -27.891 13.5892 3.92723 90.9695 -13.5106 -51.3066 3.17748e-006 28.01 1.8232 85.2599 -86.217 41.7115 3.12557e-006 24.3992 -2.49173 -161.838 60.911 -172.099 27.891 13.5892 3.92714 -92.6944 -23.8372 62.1586 -3.60191e-006 28.0098 1.82319 -3.35886 -63.8629 10.6135 3.16774e-007 24.3992 -2.49172 142.428 69.0042 167.978 6.07685e-007 2.15392 0 2.30374 2.20804 0.435841 4.44089e-016 62.0609 0.472494 -3.97569e-016 2.42269e-016 -9.93923e-017 22.6695 9.65299 -5.3622 -144.756 -6.65804 41.2516 -1.14441e-005 25.813 1.69098 0.0348449 -82.1521 -0.306496 1.02953e-008 28.5636 -0.966313 44.4733 6.60982 -93.3534 -22.6695 9.65298 -5.3622 123.821 -17.1515 -40.2035 3.8147e-006 25.813 1.69102 179.99 -82.8386 -176.585 2.09903e-008 28.5636 -0.966295 -57.1385 32.742 120.13 4.18776e-013 23.1438 -0.94499 -1.09334 -8.56815 10.9282 -1.11761e-008 20.8625 4.12738 -1.93173 -9.72823 9.99506 -1.46165e-007 7.55203 -7.58201 -1.00431e-005 3.1858 6.86853e-007 
